<mxfile host="app.diagrams.net" agent="Mozilla/5.0 (Macintosh; Intel Mac OS X 10_15_7) AppleWebKit/537.36 (KHTML, like Gecko) Chrome/131.0.0.0 Safari/537.36" version="25.0.3">
  <diagram name="Page-1" id="giG1LW2f477rjELDlQ3v">
    <mxGraphModel dx="2044" dy="789" grid="1" gridSize="10" guides="1" tooltips="1" connect="1" arrows="1" fold="1" page="1" pageScale="1" pageWidth="850" pageHeight="1100" math="0" shadow="0">
      <root>
        <mxCell id="0" />
        <mxCell id="1" parent="0" />
        <mxCell id="2oFP2QNvXho2rPIvFMp3-3" style="edgeStyle=orthogonalEdgeStyle;rounded=0;orthogonalLoop=1;jettySize=auto;html=1;entryX=0;entryY=0.5;entryDx=0;entryDy=0;" edge="1" parent="1" source="2oFP2QNvXho2rPIvFMp3-1" target="2oFP2QNvXho2rPIvFMp3-2">
          <mxGeometry relative="1" as="geometry" />
        </mxCell>
        <mxCell id="2oFP2QNvXho2rPIvFMp3-1" value="start" style="strokeWidth=2;html=1;shape=mxgraph.flowchart.start_1;whiteSpace=wrap;" vertex="1" parent="1">
          <mxGeometry y="370" width="100" height="60" as="geometry" />
        </mxCell>
        <mxCell id="2oFP2QNvXho2rPIvFMp3-5" style="edgeStyle=orthogonalEdgeStyle;rounded=0;orthogonalLoop=1;jettySize=auto;html=1;entryX=0;entryY=0.5;entryDx=0;entryDy=0;" edge="1" parent="1" source="2oFP2QNvXho2rPIvFMp3-2" target="2oFP2QNvXho2rPIvFMp3-4">
          <mxGeometry relative="1" as="geometry" />
        </mxCell>
        <mxCell id="2oFP2QNvXho2rPIvFMp3-2" value="nhap so n" style="shape=parallelogram;html=1;strokeWidth=2;perimeter=parallelogramPerimeter;whiteSpace=wrap;rounded=1;arcSize=12;size=0.23;" vertex="1" parent="1">
          <mxGeometry x="150" y="370" width="100" height="60" as="geometry" />
        </mxCell>
        <mxCell id="2oFP2QNvXho2rPIvFMp3-6" style="edgeStyle=orthogonalEdgeStyle;rounded=0;orthogonalLoop=1;jettySize=auto;html=1;" edge="1" parent="1" source="2oFP2QNvXho2rPIvFMp3-4">
          <mxGeometry relative="1" as="geometry">
            <mxPoint x="490" y="400" as="targetPoint" />
          </mxGeometry>
        </mxCell>
        <mxCell id="2oFP2QNvXho2rPIvFMp3-4" value="chuyen so thanh chuoi" style="rounded=1;whiteSpace=wrap;html=1;absoluteArcSize=1;arcSize=14;strokeWidth=2;" vertex="1" parent="1">
          <mxGeometry x="295" y="360" width="130" height="80" as="geometry" />
        </mxCell>
        <mxCell id="2oFP2QNvXho2rPIvFMp3-9" style="edgeStyle=orthogonalEdgeStyle;rounded=0;orthogonalLoop=1;jettySize=auto;html=1;" edge="1" parent="1" source="2oFP2QNvXho2rPIvFMp3-7">
          <mxGeometry relative="1" as="geometry">
            <mxPoint x="660" y="400" as="targetPoint" />
          </mxGeometry>
        </mxCell>
        <mxCell id="2oFP2QNvXho2rPIvFMp3-7" value="dao nguoc chuoi" style="rounded=1;whiteSpace=wrap;html=1;absoluteArcSize=1;arcSize=14;strokeWidth=2;" vertex="1" parent="1">
          <mxGeometry x="490" y="360" width="100" height="80" as="geometry" />
        </mxCell>
        <mxCell id="2oFP2QNvXho2rPIvFMp3-11" style="edgeStyle=orthogonalEdgeStyle;rounded=0;orthogonalLoop=1;jettySize=auto;html=1;" edge="1" parent="1" source="2oFP2QNvXho2rPIvFMp3-8">
          <mxGeometry relative="1" as="geometry">
            <mxPoint x="840" y="400" as="targetPoint" />
          </mxGeometry>
        </mxCell>
        <mxCell id="2oFP2QNvXho2rPIvFMp3-8" value="chuyen chuoi ve so" style="rounded=1;whiteSpace=wrap;html=1;absoluteArcSize=1;arcSize=14;strokeWidth=2;" vertex="1" parent="1">
          <mxGeometry x="660" y="360" width="110" height="80" as="geometry" />
        </mxCell>
        <mxCell id="2oFP2QNvXho2rPIvFMp3-12" value="print(&quot;so n da dao nguoc&quot;)" style="strokeWidth=2;html=1;shape=mxgraph.flowchart.display;whiteSpace=wrap;" vertex="1" parent="1">
          <mxGeometry x="840" y="370" width="160" height="60" as="geometry" />
        </mxCell>
      </root>
    </mxGraphModel>
  </diagram>
</mxfile>
